{
  "accessors": [
    {
      "bufferView": 2,
      "componentType": 5126,
      "count": 2578,
      "max": [
        26.171875,
        94.3359375,
        21.31348419189453
      ],
      "min": [
        -26.171875,
        -100.0,
        -22.3022403717041
      ],
      "type": "VEC3"
    },
    {
      "bufferView": 2,
      "byteOffset": 30936,
      "componentType": 5126,
      "count": 2578,
      "max": [
        0.9999964237213135,
        1.0,
        0.9999998807907104
      ],
      "min": [
        -0.9999964237213135,
        -1.0,
        -1.0
      ],
      "type": "VEC3"
    },
    {
      "bufferView": 1,
      "componentType": 5126,
      "count": 2578,
      "max": [
        0.99951171875,
        0.99072265625
      ],
      "min": [
        0.0003662109375,
        -0.1220703125
      ],
      "type": "VEC2"
    },
    {
      "bufferView": 0,
      "componentType": 5125,
      "count": 6906,
      "type": "SCALAR"
    },
    {
      "bufferView": 2,
      "byteOffset": 61872,
      "componentType": 5126,
      "count": 2296,
      "max": [
        26.5625,
        96.728515625,
        14.28223705291748
      ],
      "min": [
        -26.5625,
        -87.01171875,
        -21.53319549560547
      ],
      "type": "VEC3"
    },
    {
      "bufferView": 2,
      "byteOffset": 89424,
      "componentType": 5126,
      "count": 2296,
      "max": [
        1.0,
        1.0,
        1.0
      ],
      "min": [
        -1.0,
        -1.0,
        -1.0
      ],
      "type": "VEC3"
    },
    {
      "bufferView": 1,
      "byteOffset": 20624,
      "componentType": 5126,
      "count": 2296,
      "max": [
        1.3955078125,
        1.330322265625
      ],
      "min": [
        -0.60498046875,
        -0.142578125
      ],
      "type": "VEC2"
    },
    {
      "bufferView": 0,
      "byteOffset": 27624,
      "componentType": 5125,
      "count": 6162,
      "type": "SCALAR"
    },
    {
      "bufferView": 2,
      "byteOffset": 116976,
      "componentType": 5126,
      "count": 1011,
      "max": [
        25.1220703125,
        96.97265625,
        22.4609432220459
      ],
      "min": [
        -25.1220703125,
        -80.078125,
        -22.3022403717041
      ],
      "type": "VEC3"
    },
    {
      "bufferView": 2,
      "byteOffset": 129108,
      "componentType": 5126,
      "count": 1011,
      "max": [
        1.0,
        1.0,
        0.9999957084655762
      ],
      "min": [
        -1.0,
        -1.0,
        -0.9999998211860657
      ],
      "type": "VEC3"
    },
    {
      "bufferView": 1,
      "byteOffset": 38992,
      "componentType": 5126,
      "count": 1011,
      "max": [
        0.9931640625,
        0.9941558837890625
      ],
      "min": [
        0.010498046875,
        0.00390625
      ],
      "type": "VEC2"
    },
    {
      "bufferView": 0,
      "byteOffset": 52272,
      "componentType": 5125,
      "count": 2628,
      "type": "SCALAR"
    },
    {
      "bufferView": 2,
      "byteOffset": 141240,
      "componentType": 5126,
      "count": 1382,
      "max": [
        11.956787109375,
        53.22265625,
        20.2514705657959
      ],
      "min": [
        -11.962890625,
        -67.578125,
        -9.906003952026367
      ],
      "type": "VEC3"
    },
    {
      "bufferView": 2,
      "byteOffset": 157824,
      "componentType": 5126,
      "count": 1382,
      "max": [
        1.0,
        1.0,
        0.9909027218818665
      ],
      "min": [
        -1.0,
        -1.0,
        -0.9904819130897522
      ],
      "type": "VEC3"
    },
    {
      "bufferView": 1,
      "byteOffset": 47080,
      "componentType": 5126,
      "count": 1382,
      "max": [
        0.73095703125,
        1.71826171875
      ],
      "min": [
        -0.303955078125,
        0.2265625
      ],
      "type": "VEC2"
    },
    {
      "bufferView": 0,
      "byteOffset": 62784,
      "componentType": 5125,
      "count": 3978,
      "type": "SCALAR"
    },
    {
      "bufferView": 2,
      "byteOffset": 174408,
      "componentType": 5126,
      "count": 394,
      "max": [
        27.001953125,
        67.1875,
        16.882328033447266
      ],
      "min": [
        -27.0263671875,
        -38.0126953125,
        -21.09374237060547
      ],
      "type": "VEC3"
    },
    {
      "bufferView": 2,
      "byteOffset": 179136,
      "componentType": 5126,
      "count": 394,
      "max": [
        0.9999984502792358,
        0.27282407879829407,
        0.9999999403953552
      ],
      "min": [
        -0.9999983906745911,
        -0.2766435742378235,
        -1.0
      ],
      "type": "VEC3"
    },
    {
      "bufferView": 1,
      "byteOffset": 58136,
      "componentType": 5126,
      "count": 394,
      "max": [
        0.7880859375,
        0.7879638671875
      ],
      "min": [
        0.21435546875,
        0.212890625
      ],
      "type": "VEC2"
    },
    {
      "bufferView": 0,
      "byteOffset": 78696,
      "componentType": 5125,
      "count": 1080,
      "type": "SCALAR"
    },
    {
      "bufferView": 2,
      "byteOffset": 183864,
      "componentType": 5126,
      "count": 326,
      "max": [
        9.48486328125,
        81.201171875,
        4.943841457366943
      ],
      "min": [
        -9.490966796875,
        -39.84375,
        -10.723864555358887
      ],
      "type": "VEC3"
    },
    {
      "bufferView": 2,
      "byteOffset": 187776,
      "componentType": 5126,
      "count": 326,
      "max": [
        1.0,
        1.0,
        1.0
      ],
      "min": [
        -0.9999967813491821,
        -7.626462661391997e-07,
        -1.0
      ],
      "type": "VEC3"
    },
    {
      "bufferView": 1,
      "byteOffset": 61288,
      "componentType": 5126,
      "count": 326,
      "max": [
        0.75146484375,
        2.0576171875
      ],
      "min": [
        0.248291015625,
        -1.05859375
      ],
      "type": "VEC2"
    },
    {
      "bufferView": 0,
      "byteOffset": 83016,
      "componentType": 5125,
      "count": 858,
      "type": "SCALAR"
    },
    {
      "bufferView": 2,
      "byteOffset": 191688,
      "componentType": 5126,
      "count": 379,
      "max": [
        9.4970703125,
        81.201171875,
        4.956048488616943
      ],
      "min": [
        -9.503173828125,
        -39.453125,
        -14.78270149230957
      ],
      "type": "VEC3"
    },
    {
      "bufferView": 2,
      "byteOffset": 196236,
      "componentType": 5126,
      "count": 379,
      "max": [
        0.710341215133667,
        1.0,
        0.6947426199913025
      ],
      "min": [
        -0.6985883712768555,
        -1.0,
        -0.6931503415107727
      ],
      "type": "VEC3"
    },
    {
      "bufferView": 1,
      "byteOffset": 63896,
      "componentType": 5126,
      "count": 379,
      "max": [
        1.107421875,
        1.1126708984375
      ],
      "min": [
        -0.1072998046875,
        -0.1123046875
      ],
      "type": "VEC2"
    },
    {
      "bufferView": 0,
      "byteOffset": 86448,
      "componentType": 5125,
      "count": 1086,
      "type": "SCALAR"
    }
  ],
  "asset": {
    "extras": {
      "author": "lightwarrior (https://sketchfab.com/lightwarrior)",
      "license": "CC-BY-4.0 (http://creativecommons.org/licenses/by/4.0/)",
      "source": "https://sketchfab.com/3d-models/angel-wing-4f652384de3b4d1f8ee1ee833ac6f855",
      "title": "Angel Wing"
    },
    "generator": "Sketchfab-11.62.0",
    "version": "2.0"
  },
  "bufferViews": [
    {
      "buffer": 0,
      "byteLength": 90792,
      "name": "floatBufferViews",
      "target": 34963
    },
    {
      "buffer": 0,
      "byteLength": 66928,
      "byteOffset": 90792,
      "byteStride": 8,
      "name": "floatBufferViews",
      "target": 34962
    },
    {
      "buffer": 0,
      "byteLength": 200784,
      "byteOffset": 157720,
      "byteStride": 12,
      "name": "floatBufferViews",
      "target": 34962
    }
  ],
  "buffers": [
    {
      "byteLength": 358504,
      "uri": "scene.bin"
    }
  ],
  "images": [
    {
      "uri": "textures/Tex_0016_0.dds_baseColor.png"
    },
    {
      "uri": "textures/Tex_0016_0.dds_emissive.png"
    },
    {
      "uri": "textures/Tex_0020_0.dds_baseColor.png"
    },
    {
      "uri": "textures/Tex_0023_0.dds_baseColor.png"
    },
    {
      "uri": "textures/Tex_0023_0.dds_emissive.png"
    },
    {
      "uri": "textures/Tex_0027_0.dds_baseColor.png"
    },
    {
      "uri": "textures/Tex_0027_0.dds_emissive.png"
    },
    {
      "uri": "textures/Tex_0031_0.dds_baseColor.png"
    },
    {
      "uri": "textures/Tex_0034_0.dds_baseColor.png"
    },
    {
      "uri": "textures/Tex_0038_0.dds_baseColor.png"
    },
    {
      "uri": "textures/Tex_0038_0.dds_emissive.png"
    }
  ],
  "materials": [
    {
      "doubleSided": true,
      "emissiveFactor": [
        1.0,
        1.0,
        1.0
      ],
      "emissiveTexture": {
        "index": 1
      },
      "name": "Tex_0016_0.dds",
      "pbrMetallicRoughness": {
        "baseColorTexture": {
          "index": 0
        },
        "roughnessFactor": 0.6
      }
    },
    {
      "doubleSided": true,
      "name": "Tex_0020_0.dds",
      "pbrMetallicRoughness": {
        "baseColorTexture": {
          "index": 2
        },
        "roughnessFactor": 0.6
      }
    },
    {
      "doubleSided": true,
      "emissiveFactor": [
        1.0,
        1.0,
        1.0
      ],
      "emissiveTexture": {
        "index": 4
      },
      "name": "Tex_0023_0.dds",
      "pbrMetallicRoughness": {
        "baseColorTexture": {
          "index": 3
        },
        "roughnessFactor": 0.6
      }
    },
    {
      "doubleSided": true,
      "emissiveFactor": [
        1.0,
        1.0,
        1.0
      ],
      "emissiveTexture": {
        "index": 6
      },
      "name": "Tex_0027_0.dds",
      "pbrMetallicRoughness": {
        "baseColorTexture": {
          "index": 5
        },
        "metallicFactor": 0.0,
        "roughnessFactor": 0.8929713596497552
      }
    },
    {
      "doubleSided": true,
      "name": "Tex_0031_0.dds",
      "pbrMetallicRoughness": {
        "baseColorTexture": {
          "index": 7
        },
        "roughnessFactor": 0.6
      }
    },
    {
      "doubleSided": true,
      "name": "Tex_0034_0.dds",
      "pbrMetallicRoughness": {
        "baseColorTexture": {
          "index": 8
        }
      }
    },
    {
      "doubleSided": true,
      "emissiveFactor": [
        1.0,
        1.0,
        1.0
      ],
      "emissiveTexture": {
        "index": 10
      },
      "name": "Tex_0038_0.dds",
      "pbrMetallicRoughness": {
        "baseColorTexture": {
          "index": 9
        },
        "roughnessFactor": 0.5
      }
    }
  ],
  "meshes": [
    {
      "name": "Mesh_0010_Tex_0016_0.dds_0",
      "primitives": [
        {
          "attributes": {
            "NORMAL": 1,
            "POSITION": 0,
            "TEXCOORD_0": 2
          },
          "indices": 3,
          "material": 0,
          "mode": 4
        }
      ]
    },
    {
      "name": "Mesh_0011_Tex_0020_0.dds_0",
      "primitives": [
        {
          "attributes": {
            "NORMAL": 5,
            "POSITION": 4,
            "TEXCOORD_0": 6
          },
          "indices": 7,
          "material": 1,
          "mode": 4
        }
      ]
    },
    {
      "name": "Mesh_0012_Tex_0023_0.dds_0",
      "primitives": [
        {
          "attributes": {
            "NORMAL": 9,
            "POSITION": 8,
            "TEXCOORD_0": 10
          },
          "indices": 11,
          "material": 2,
          "mode": 4
        }
      ]
    },
    {
      "name": "Mesh_0013_Tex_0027_0.dds_0",
      "primitives": [
        {
          "attributes": {
            "NORMAL": 13,
            "POSITION": 12,
            "TEXCOORD_0": 14
          },
          "indices": 15,
          "material": 3,
          "mode": 4
        }
      ]
    },
    {
      "name": "Mesh_0014_Tex_0031_0.dds_0",
      "primitives": [
        {
          "attributes": {
            "NORMAL": 17,
            "POSITION": 16,
            "TEXCOORD_0": 18
          },
          "indices": 19,
          "material": 4,
          "mode": 4
        }
      ]
    },
    {
      "name": "Mesh_0015_Tex_0034_0.dds_0",
      "primitives": [
        {
          "attributes": {
            "NORMAL": 21,
            "POSITION": 20,
            "TEXCOORD_0": 22
          },
          "indices": 23,
          "material": 5,
          "mode": 4
        }
      ]
    },
    {
      "name": "Mesh_0016_Tex_0038_0.dds_0",
      "primitives": [
        {
          "attributes": {
            "NORMAL": 25,
            "POSITION": 24,
            "TEXCOORD_0": 26
          },
          "indices": 27,
          "material": 6,
          "mode": 4
        }
      ]
    }
  ],
  "nodes": [
    {
      "children": [
        1
      ],
      "matrix": [
        1.0,
        0.0,
        0.0,
        0.0,
        0.0,
        2.220446049250313e-16,
        -1.0,
        0.0,
        0.0,
        1.0,
        2.220446049250313e-16,
        0.0,
        0.0,
        2.220446049250313e-16,
        4.930380657631324e-32,
        1.0
      ],
      "name": "Sketchfab_model"
    },
    {
      "children": [
        2
      ],
      "matrix": [
        0.02539999969303608,
        0.0,
        0.0,
        0.0,
        0.0,
        0.0,
        0.02539999969303608,
        0.0,
        0.0,
        -0.02539999969303608,
        0.0,
        0.0,
        0.0,
        0.0,
        0.0,
        1.0
      ],
      "name": "Angel Wing.FBX"
    },
    {
      "children": [
        3,
        5,
        7,
        9,
        11,
        13,
        15
      ],
      "name": "RootNode"
    },
    {
      "children": [
        4
      ],
      "matrix": [
        1.0,
        0.0,
        0.0,
        0.0,
        0.0,
        2.220446049250313e-16,
        -1.0,
        0.0,
        0.0,
        1.0,
        2.220446049250313e-16,
        0.0,
        0.0,
        0.0,
        0.0,
        1.0
      ],
      "name": "Mesh_0010"
    },
    {
      "mesh": 0,
      "name": "Mesh_0010_Tex_0016_0.dds_0"
    },
    {
      "children": [
        6
      ],
      "matrix": [
        1.0,
        0.0,
        0.0,
        0.0,
        0.0,
        2.220446049250313e-16,
        -1.0,
        0.0,
        0.0,
        1.0,
        2.220446049250313e-16,
        0.0,
        0.0,
        0.0,
        0.0,
        1.0
      ],
      "name": "Mesh_0011"
    },
    {
      "mesh": 1,
      "name": "Mesh_0011_Tex_0020_0.dds_0"
    },
    {
      "children": [
        8
      ],
      "matrix": [
        1.0,
        0.0,
        0.0,
        0.0,
        0.0,
        2.220446049250313e-16,
        -1.0,
        0.0,
        0.0,
        1.0,
        2.220446049250313e-16,
        0.0,
        0.0,
        0.0,
        0.0,
        1.0
      ],
      "name": "Mesh_0012"
    },
    {
      "mesh": 2,
      "name": "Mesh_0012_Tex_0023_0.dds_0"
    },
    {
      "children": [
        10
      ],
      "matrix": [
        1.0,
        0.0,
        0.0,
        0.0,
        0.0,
        2.220446049250313e-16,
        -1.0,
        0.0,
        0.0,
        1.0,
        2.220446049250313e-16,
        0.0,
        0.0,
        0.0,
        0.0,
        1.0
      ],
      "name": "Mesh_0013"
    },
    {
      "mesh": 3,
      "name": "Mesh_0013_Tex_0027_0.dds_0"
    },
    {
      "children": [
        12
      ],
      "matrix": [
        1.0,
        0.0,
        0.0,
        0.0,
        0.0,
        2.220446049250313e-16,
        -1.0,
        0.0,
        0.0,
        1.0,
        2.220446049250313e-16,
        0.0,
        0.0,
        0.0,
        0.0,
        1.0
      ],
      "name": "Mesh_0014"
    },
    {
      "mesh": 4,
      "name": "Mesh_0014_Tex_0031_0.dds_0"
    },
    {
      "children": [
        14
      ],
      "matrix": [
        1.0,
        0.0,
        0.0,
        0.0,
        0.0,
        2.220446049250313e-16,
        -1.0,
        0.0,
        0.0,
        1.0,
        2.220446049250313e-16,
        0.0,
        0.0,
        0.0,
        0.0,
        1.0
      ],
      "name": "Mesh_0015"
    },
    {
      "mesh": 5,
      "name": "Mesh_0015_Tex_0034_0.dds_0"
    },
    {
      "children": [
        16
      ],
      "matrix": [
        1.0,
        0.0,
        0.0,
        0.0,
        0.0,
        2.220446049250313e-16,
        -1.0,
        0.0,
        0.0,
        1.0,
        2.220446049250313e-16,
        0.0,
        0.0,
        0.0,
        0.0,
        1.0
      ],
      "name": "Mesh_0016"
    },
    {
      "mesh": 6,
      "name": "Mesh_0016_Tex_0038_0.dds_0"
    }
  ],
  "samplers": [
    {
      "magFilter": 9729,
      "minFilter": 9987,
      "wrapS": 10497,
      "wrapT": 10497
    }
  ],
  "scene": 0,
  "scenes": [
    {
      "name": "Sketchfab_Scene",
      "nodes": [
        0
      ]
    }
  ],
  "textures": [
    {
      "sampler": 0,
      "source": 0
    },
    {
      "sampler": 0,
      "source": 1
    },
    {
      "sampler": 0,
      "source": 2
    },
    {
      "sampler": 0,
      "source": 3
    },
    {
      "sampler": 0,
      "source": 4
    },
    {
      "sampler": 0,
      "source": 5
    },
    {
      "sampler": 0,
      "source": 6
    },
    {
      "sampler": 0,
      "source": 7
    },
    {
      "sampler": 0,
      "source": 8
    },
    {
      "sampler": 0,
      "source": 9
    },
    {
      "sampler": 0,
      "source": 10
    }
  ]
}
