{
  "accessors": [
    {
      "bufferView": 2,
      "componentType": 5126,
      "count": 65532,
      "max": [
        551.6861572265625,
        769.966796875,
        406.3048095703125
      ],
      "min": [
        -614.1082153320313,
        38.25892639160156,
        -546.5598754882813
      ],
      "type": "VEC3"
    },
    {
      "bufferView": 2,
      "byteOffset": 786384,
      "componentType": 5126,
      "count": 65532,
      "max": [
        0.9999843835830688,
        0.9999839067459106,
        0.9999908208847046
      ],
      "min": [
        -1.0,
        -0.9999998807907104,
        -0.9999678134918213
      ],
      "type": "VEC3"
    },
    {
      "bufferView": 1,
      "componentType": 5126,
      "count": 65532,
      "max": [
        0.9984139800071716,
        0.9992560148239136
      ],
      "min": [
        0.0007440000190399587,
        0.0007529999711550772
      ],
      "type": "VEC2"
    },
    {
      "bufferView": 0,
      "componentType": 5125,
      "count": 337833,
      "type": "SCALAR"
    },
    {
      "bufferView": 2,
      "byteOffset": 1572768,
      "componentType": 5126,
      "count": 47772,
      "max": [
        505.323974609375,
        557.4725952148438,
        450.28302001953125
      ],
      "min": [
        -627.8780517578125,
        15.775511741638184,
        -450.6146545410156
      ],
      "type": "VEC3"
    },
    {
      "bufferView": 2,
      "byteOffset": 2146032,
      "componentType": 5126,
      "count": 47772,
      "max": [
        0.9999861717224121,
        1.0,
        0.9999440908432007
      ],
      "min": [
        -0.9999539256095886,
        -0.9999967813491821,
        -0.9999678134918213
      ],
      "type": "VEC3"
    },
    {
      "bufferView": 1,
      "byteOffset": 524256,
      "componentType": 5126,
      "count": 47772,
      "max": [
        0.9782090187072754,
        0.9992560148239136
      ],
      "min": [
        0.0007440000190399587,
        0.00266100000590086
      ],
      "type": "VEC2"
    },
    {
      "bufferView": 0,
      "byteOffset": 1351332,
      "componentType": 5125,
      "count": 262167,
      "type": "SCALAR"
    }
  ],
  "asset": {
    "extras": {
      "author": "Natural History Museum Vienna (https://sketchfab.com/NHMWien)",
      "license": "CC-BY-NC-4.0 (http://creativecommons.org/licenses/by-nc/4.0/)",
      "source": "https://sketchfab.com/3d-models/franz-viehbocks-sokol-space-suit-a2d679620a254660b12c7274de9bfc07",
      "title": "Franz Viehböck's Sokol Space Suit"
    },
    "generator": "Sketchfab-11.64.0",
    "version": "2.0"
  },
  "bufferViews": [
    {
      "buffer": 0,
      "byteLength": 2400000,
      "name": "floatBufferViews",
      "target": 34963
    },
    {
      "buffer": 0,
      "byteLength": 906432,
      "byteOffset": 2400000,
      "byteStride": 8,
      "name": "floatBufferViews",
      "target": 34962
    },
    {
      "buffer": 0,
      "byteLength": 2719296,
      "byteOffset": 3306432,
      "byteStride": 12,
      "name": "floatBufferViews",
      "target": 34962
    }
  ],
  "buffers": [
    {
      "byteLength": 6025728,
      "uri": "scene.bin"
    }
  ],
  "extensionsRequired": [
    "KHR_materials_pbrSpecularGlossiness"
  ],
  "extensionsUsed": [
    "KHR_materials_pbrSpecularGlossiness"
  ],
  "images": [
    {
      "uri": "textures/material_0_diffuse.png"
    }
  ],
  "materials": [
    {
      "doubleSided": true,
      "extensions": {
        "KHR_materials_pbrSpecularGlossiness": {
          "diffuseFactor": [
            1.0,
            1.0,
            1.0,
            1.0
          ],
          "diffuseTexture": {
            "index": 0
          },
          "glossinessFactor": 0.5774110776229827,
          "specularFactor": [
            0.01434105939756158,
            0.01434105939756158,
            0.01434105939756158
          ]
        }
      },
      "name": "material_0"
    }
  ],
  "meshes": [
    {
      "name": "Object_0",
      "primitives": [
        {
          "attributes": {
            "NORMAL": 1,
            "POSITION": 0,
            "TEXCOORD_0": 2
          },
          "indices": 3,
          "material": 0,
          "mode": 4
        }
      ]
    },
    {
      "name": "Object_1",
      "primitives": [
        {
          "attributes": {
            "NORMAL": 5,
            "POSITION": 4,
            "TEXCOORD_0": 6
          },
          "indices": 7,
          "material": 0,
          "mode": 4
        }
      ]
    }
  ],
  "nodes": [
    {
      "children": [
        1
      ],
      "matrix": [
        0.0011725629953412975,
        -0.0005126308488437662,
        0.0006349188021369591,
        0.0,
        -0.0006028032238294956,
        -0.0012933210677184767,
        6.903002762941917e-05,
        0.0,
        0.0005500368502153394,
        -0.0003245712143331786,
        -0.0012778612408696766,
        0.0,
        177.48399353027344,
        282.9305419921876,
        -437.98278808593744,
        1.0
      ],
      "name": "Sketchfab_model"
    },
    {
      "children": [
        2,
        3
      ],
      "name": "NHMW-Franz Viehboeck_low res.obj.cleaner.materialmerger.gles"
    },
    {
      "mesh": 0,
      "name": "Object_2"
    },
    {
      "mesh": 1,
      "name": "Object_3"
    }
  ],
  "samplers": [
    {
      "magFilter": 9729,
      "minFilter": 9987,
      "wrapS": 10497,
      "wrapT": 10497
    }
  ],
  "scene": 0,
  "scenes": [
    {
      "name": "Sketchfab_Scene",
      "nodes": [
        0
      ]
    }
  ],
  "textures": [
    {
      "sampler": 0,
      "source": 0
    }
  ]
}
