{
  "accessors": [
    {
      "bufferView": 2,
      "componentType": 5126,
      "count": 24,
      "max": [
        1.0,
        1.0,
        1.0
      ],
      "min": [
        -1.0,
        -1.0,
        -1.0
      ],
      "type": "VEC3"
    },
    {
      "bufferView": 2,
      "byteOffset": 288,
      "componentType": 5126,
      "count": 24,
      "max": [
        1.0,
        1.0,
        1.0
      ],
      "min": [
        -1.0,
        -1.0,
        -1.0
      ],
      "type": "VEC3"
    },
    {
      "bufferView": 1,
      "componentType": 5126,
      "count": 24,
      "max": [
        0.7499567270278931,
        0.9999133944511414
      ],
      "min": [
        8.658754813950509e-05,
        8.660554885864258e-05
      ],
      "type": "VEC2"
    },
    {
      "bufferView": 0,
      "componentType": 5125,
      "count": 36,
      "type": "SCALAR"
    },
    {
      "bufferView": 2,
      "byteOffset": 576,
      "componentType": 5126,
      "count": 65532,
      "max": [
        3.42529559135437,
        2.015331268310547,
        1.699972152709961
      ],
      "min": [
        -4.2954182624816895,
        -0.895970344543457,
        -1.9009069204330444
      ],
      "type": "VEC3"
    },
    {
      "bufferView": 2,
      "byteOffset": 786960,
      "componentType": 5126,
      "count": 65532,
      "max": [
        0.9977179169654846,
        0.9999318718910217,
        0.9999924302101135
      ],
      "min": [
        -0.9990019798278809,
        -0.999998927116394,
        -0.9998742341995239
      ],
      "type": "VEC3"
    },
    {
      "bufferView": 1,
      "byteOffset": 192,
      "componentType": 5126,
      "count": 65532,
      "max": [
        0.9995989799499512,
        0.9994410276412964
      ],
      "min": [
        0.00036199999158270657,
        0.00039201974868774414
      ],
      "type": "VEC2"
    },
    {
      "bufferView": 0,
      "byteOffset": 144,
      "componentType": 5125,
      "count": 273342,
      "type": "SCALAR"
    },
    {
      "bufferView": 2,
      "byteOffset": 1573344,
      "componentType": 5126,
      "count": 65532,
      "max": [
        3.42529559135437,
        2.3624000549316406,
        1.7071491479873657
      ],
      "min": [
        -4.3138909339904785,
        -0.9196529388427734,
        -1.9069569110870361
      ],
      "type": "VEC3"
    },
    {
      "bufferView": 2,
      "byteOffset": 2359728,
      "componentType": 5126,
      "count": 65532,
      "max": [
        0.9997707605361938,
        0.9999348521232605,
        0.9999918937683105
      ],
      "min": [
        -0.9996669292449951,
        -0.9999993443489075,
        -0.9999775886535645
      ],
      "type": "VEC3"
    },
    {
      "bufferView": 1,
      "byteOffset": 524448,
      "componentType": 5126,
      "count": 65532,
      "max": [
        0.9995959997177124,
        0.9994590282440186
      ],
      "min": [
        0.00035799999022856355,
        0.0003529787063598633
      ],
      "type": "VEC2"
    },
    {
      "bufferView": 0,
      "byteOffset": 1093512,
      "componentType": 5125,
      "count": 223050,
      "type": "SCALAR"
    },
    {
      "bufferView": 2,
      "byteOffset": 3146112,
      "componentType": 5126,
      "count": 65532,
      "max": [
        3.4158127307891846,
        1.5865306854248047,
        1.7719521522521973
      ],
      "min": [
        -4.317644119262695,
        -2.1189184188842773,
        -1.8610419034957886
      ],
      "type": "VEC3"
    },
    {
      "bufferView": 2,
      "byteOffset": 3932496,
      "componentType": 5126,
      "count": 65532,
      "max": [
        0.999813437461853,
        0.9999891519546509,
        0.9999465346336365
      ],
      "min": [
        -0.999667763710022,
        -0.999998927116394,
        -0.9999790191650391
      ],
      "type": "VEC3"
    },
    {
      "bufferView": 1,
      "byteOffset": 1048704,
      "componentType": 5126,
      "count": 65532,
      "max": [
        0.9995449781417847,
        0.9994770288467407
      ],
      "min": [
        0.0003490000090096146,
        0.0003579854965209961
      ],
      "type": "VEC2"
    },
    {
      "bufferView": 0,
      "byteOffset": 1985712,
      "componentType": 5125,
      "count": 121269,
      "type": "SCALAR"
    },
    {
      "bufferView": 2,
      "byteOffset": 4718880,
      "componentType": 5126,
      "count": 65532,
      "max": [
        3.42529559135437,
        2.3636302947998047,
        1.7719521522521973
      ],
      "min": [
        -4.317496299743652,
        -2.115513801574707,
        -1.8800468444824219
      ],
      "type": "VEC3"
    },
    {
      "bufferView": 2,
      "byteOffset": 5505264,
      "componentType": 5126,
      "count": 65532,
      "max": [
        0.9999449849128723,
        0.9999891519546509,
        0.9999719858169556
      ],
      "min": [
        -0.9998822212219238,
        -0.9999993443489075,
        -0.9999790191650391
      ],
      "type": "VEC3"
    },
    {
      "bufferView": 1,
      "byteOffset": 1572960,
      "componentType": 5126,
      "count": 65532,
      "max": [
        0.999642014503479,
        0.9994720220565796
      ],
      "min": [
        0.00034699999378062785,
        0.0003529787063598633
      ],
      "type": "VEC2"
    },
    {
      "bufferView": 0,
      "byteOffset": 2470788,
      "componentType": 5125,
      "count": 118695,
      "type": "SCALAR"
    },
    {
      "bufferView": 2,
      "byteOffset": 6291648,
      "componentType": 5126,
      "count": 58967,
      "max": [
        3.3467817306518555,
        2.4500656127929688,
        1.7071491479873657
      ],
      "min": [
        -4.260062217712402,
        -0.9257907867431641,
        -2.007991075515747
      ],
      "type": "VEC3"
    },
    {
      "bufferView": 2,
      "byteOffset": 6999252,
      "componentType": 5126,
      "count": 58967,
      "max": [
        0.9997707605361938,
        0.9998996257781982,
        0.9999769330024719
      ],
      "min": [
        -0.9997824430465698,
        -0.999998927116394,
        -0.9999862909317017
      ],
      "type": "VEC3"
    },
    {
      "bufferView": 1,
      "byteOffset": 2097216,
      "componentType": 5126,
      "count": 58967,
      "max": [
        0.9996320009231567,
        0.999284029006958
      ],
      "min": [
        0.00034699999378062785,
        0.0003560185432434082
      ],
      "type": "VEC2"
    },
    {
      "bufferView": 0,
      "byteOffset": 2945568,
      "componentType": 5125,
      "count": 104172,
      "type": "SCALAR"
    },
    {
      "bufferView": 2,
      "byteOffset": 7706856,
      "componentType": 5126,
      "count": 3932,
      "max": [
        2.775184392929077,
        1.108742356300354,
        0.815746545791626
      ],
      "min": [
        1.901206612586975,
        0.9674792885780334,
        0.3628832697868347
      ],
      "type": "VEC3"
    },
    {
      "bufferView": 2,
      "byteOffset": 7754040,
      "componentType": 5126,
      "count": 3932,
      "max": [
        0.9983201622962952,
        0.9988829493522644,
        0.9998757839202881
      ],
      "min": [
        -0.9943405985832214,
        -0.9996013045310974,
        -0.9992374777793884
      ],
      "type": "VEC3"
    },
    {
      "bufferView": 1,
      "byteOffset": 2568952,
      "componentType": 5126,
      "count": 3932,
      "max": [
        0.9598699808120728,
        0.9884219765663147
      ],
      "min": [
        0.002529999939724803,
        0.002530992031097412
      ],
      "type": "VEC2"
    },
    {
      "bufferView": 0,
      "byteOffset": 3362256,
      "componentType": 5125,
      "count": 7632,
      "type": "SCALAR"
    }
  ],
  "asset": {
    "extras": {
      "author": "ffish.asia / floraZia.com (https://sketchfab.com/ffishAsia-and-floraZia)",
      "license": "CC-BY-4.0 (http://creativecommons.org/licenses/by/4.0/)",
      "source": "https://sketchfab.com/3d-models/asian-mantis-hierodula-patellifera-eccb69c46a574d97ba0d755ed5a8b9a7",
      "title": "ハラビロカマキリ ♀ Asian Mantis, Hierodula patellifera"
    },
    "generator": "Sketchfab-11.88.0",
    "version": "2.0"
  },
  "bufferViews": [
    {
      "buffer": 0,
      "byteLength": 3392784,
      "name": "floatBufferViews",
      "target": 34963
    },
    {
      "buffer": 0,
      "byteLength": 2600408,
      "byteOffset": 3392784,
      "byteStride": 8,
      "name": "floatBufferViews",
      "target": 34962
    },
    {
      "buffer": 0,
      "byteLength": 7801224,
      "byteOffset": 5993192,
      "byteStride": 12,
      "name": "floatBufferViews",
      "target": 34962
    }
  ],
  "buffers": [
    {
      "byteLength": 13794416,
      "uri": "scene.bin"
    }
  ],
  "extensionsUsed": [
    "KHR_materials_unlit"
  ],
  "images": [
    {
      "uri": "textures/Material.001_baseColor.jpeg"
    },
    {
      "uri": "textures/Q11510-1all-6-body_baseColor.jpeg"
    },
    {
      "uri": "textures/ashi_baseColor.jpeg"
    }
  ],
  "materials": [
    {
      "doubleSided": true,
      "extensions": {
        "KHR_materials_unlit": {}
      },
      "name": "Material.001",
      "pbrMetallicRoughness": {
        "baseColorTexture": {
          "index": 0
        },
        "metallicFactor": 0.0
      }
    },
    {
      "doubleSided": true,
      "extensions": {
        "KHR_materials_unlit": {}
      },
      "name": "Q11510-1all-6-body",
      "pbrMetallicRoughness": {
        "baseColorTexture": {
          "index": 1
        },
        "metallicFactor": 0.0
      }
    },
    {
      "doubleSided": true,
      "extensions": {
        "KHR_materials_unlit": {}
      },
      "name": "ashi",
      "pbrMetallicRoughness": {
        "baseColorTexture": {
          "index": 2
        },
        "metallicFactor": 0.0
      }
    }
  ],
  "meshes": [
    {
      "name": "Object_0",
      "primitives": [
        {
          "attributes": {
            "NORMAL": 1,
            "POSITION": 0,
            "TEXCOORD_0": 2
          },
          "indices": 3,
          "material": 0,
          "mode": 4
        }
      ]
    },
    {
      "name": "Object_1",
      "primitives": [
        {
          "attributes": {
            "NORMAL": 5,
            "POSITION": 4,
            "TEXCOORD_0": 6
          },
          "indices": 7,
          "material": 1,
          "mode": 4
        }
      ]
    },
    {
      "name": "Object_2",
      "primitives": [
        {
          "attributes": {
            "NORMAL": 9,
            "POSITION": 8,
            "TEXCOORD_0": 10
          },
          "indices": 11,
          "material": 1,
          "mode": 4
        }
      ]
    },
    {
      "name": "Object_3",
      "primitives": [
        {
          "attributes": {
            "NORMAL": 13,
            "POSITION": 12,
            "TEXCOORD_0": 14
          },
          "indices": 15,
          "material": 1,
          "mode": 4
        }
      ]
    },
    {
      "name": "Object_4",
      "primitives": [
        {
          "attributes": {
            "NORMAL": 17,
            "POSITION": 16,
            "TEXCOORD_0": 18
          },
          "indices": 19,
          "material": 1,
          "mode": 4
        }
      ]
    },
    {
      "name": "Object_5",
      "primitives": [
        {
          "attributes": {
            "NORMAL": 21,
            "POSITION": 20,
            "TEXCOORD_0": 22
          },
          "indices": 23,
          "material": 1,
          "mode": 4
        }
      ]
    },
    {
      "name": "Object_6",
      "primitives": [
        {
          "attributes": {
            "NORMAL": 25,
            "POSITION": 24,
            "TEXCOORD_0": 26
          },
          "indices": 27,
          "material": 2,
          "mode": 4
        }
      ]
    }
  ],
  "nodes": [
    {
      "children": [
        1
      ],
      "matrix": [
        1.0,
        0.0,
        0.0,
        0.0,
        0.0,
        2.220446049250313e-16,
        -1.0,
        0.0,
        0.0,
        1.0,
        2.220446049250313e-16,
        0.0,
        0.0,
        0.0,
        0.0,
        1.0
      ],
      "name": "Sketchfab_model"
    },
    {
      "children": [
        2
      ],
      "name": "root"
    },
    {
      "children": [
        3,
        5
      ],
      "matrix": [
        1.0,
        0.0,
        0.0,
        0.0,
        0.0,
        2.220446049250313e-16,
        1.0,
        0.0,
        0.0,
        -1.0,
        2.220446049250313e-16,
        0.0,
        0.0,
        0.0,
        0.0,
        1.0
      ],
      "name": "GLTF_SceneRootNode"
    },
    {
      "children": [
        4
      ],
      "matrix": [
        -0.0008648423437781131,
        -0.4669009288947416,
        0.001665335556530456,
        0.0,
        0.002155531801560001,
        -0.0016693134214009354,
        -0.4668967697496003,
        0.0,
        0.46689898274309605,
        -0.0008571394518290789,
        0.0021586065809584085,
        0.0,
        4.05368185043335,
        1.6432265043258667,
        -0.01030653528869152,
        1.0
      ],
      "name": "Cube_2"
    },
    {
      "mesh": 0,
      "name": "Object_4"
    },
    {
      "children": [
        6,
        7,
        8,
        9,
        10,
        11
      ],
      "matrix": [
        0.8699004591956028,
        -0.4882401777556308,
        0.06996227495178686,
        0.0,
        -0.39640771915258577,
        -0.7764743165533581,
        -0.4898454408578694,
        0.0,
        0.2934861347449383,
        0.3983831880967692,
        -0.8689975397861207,
        0.0,
        0.0,
        0.0,
        0.0,
        1.0
      ],
      "name": "Q11510-1all-6-body_5"
    },
    {
      "mesh": 1,
      "name": "Object_6"
    },
    {
      "mesh": 2,
      "name": "Object_7"
    },
    {
      "mesh": 3,
      "name": "Object_8"
    },
    {
      "mesh": 4,
      "name": "Object_9"
    },
    {
      "mesh": 5,
      "name": "Object_10"
    },
    {
      "mesh": 6,
      "name": "Object_11"
    }
  ],
  "samplers": [
    {
      "magFilter": 9729,
      "minFilter": 9987,
      "wrapS": 10497,
      "wrapT": 10497
    }
  ],
  "scene": 0,
  "scenes": [
    {
      "name": "Sketchfab_Scene",
      "nodes": [
        0
      ]
    }
  ],
  "textures": [
    {
      "sampler": 0,
      "source": 0
    },
    {
      "sampler": 0,
      "source": 1
    },
    {
      "sampler": 0,
      "source": 2
    }
  ]
}
